<?xml version="1.0" ?><svg data-name="Layer 1" id="Layer_1" viewBox="0 0 512 512" xmlns="http://www.w3.org/2000/svg"><path d="M180,178.58h232.2a6,6,0,0,0,0-12.06H180a6,6,0,1,0,0,12.06Z"/><path d="M180,232.4h232.2a6,6,0,0,0,0-12.06H180a6,6,0,1,0,0,12.06Z"/><path d="M180,286.22h232.2a6,6,0,0,0,0-12.06H180a6,6,0,1,0,0,12.06Z"/><path d="M180,340H347.87a6,6,0,0,0,0-12.06H180A6,6,0,1,0,180,340Z"/><path d="M460,62.16H129.52a6,6,0,0,0-6,6V378.52H52a6,6,0,0,0-6,6,65.36,65.36,0,0,0,65.29,65.29H400.78a65.36,65.36,0,0,0,65.29-65.29V68.19A6,6,0,0,0,460,62.16ZM111.22,437.78a53.31,53.31,0,0,1-52.89-47.2h276a64.83,64.83,0,0,0,18.84,40.14,66.43,66.43,0,0,0,8.37,7.06ZM454,384.55a53.29,53.29,0,0,1-53.23,53.23h-1.44a53.23,53.23,0,0,1-53.23-53.23,6,6,0,0,0-6-6H135.56V74.22H454Z"/></svg>